<svg xmlns="http://www.w3.org/2000/svg" viewBox="0 0 1200 1200" role="img" aria-labelledby="title desc">
  <title id="title">TrustLoopGuard logo</title>
  <desc id="desc">Dark circular TrustLoopGuard mark with orange angular monogram.</desc>
  <circle cx="600" cy="600" r="600" fill="#282828"/>
  <path fill="#ef4b1f" d="M348 390l225-97c10-4 17-5 20-1 4 4 6 15 7 34v37c0 13-2 22-6 27-4 4-12 8-25 11l-73 25c-18 6-29 13-34 22-4 8-6 22-6 42v199c0 10-3 16-9 18-6 3-19 4-39 4-16 0-29-1-40-2-10-1-17-3-20-5V390Zm266-90c28 7 56 17 84 31v312l148 2c11 0 18 2 21 5 4 4 6 17 6 39 0 15-1 25-4 30-3 4-9 7-19 8-36 2-79 3-129 3H614V300Zm-270 460c0-20 2-33 6-37 4-5 14-6 29-3 18 3 63 21 135 53 50 22 78 33 86 33 9 0 39-11 89-33 77-34 124-52 139-53 13-2 22-1 26 3 5 5 8 18 8 38 0 21-2 34-6 40-3 5-11 9-23 13L591 959 354 814c-6-2-9-5-10-10-3-10-4-25-4-44Z"/>
</svg>
